<svg xmlns="http://www.w3.org/2000/svg"  viewBox="0 0 100 100" width="100px" height="100px"><path fill="#ee3e54" d="M13 27A2 2 0 1 0 13 31A2 2 0 1 0 13 27Z"/><path fill="#f1bc19" d="M77 12A1 1 0 1 0 77 14A1 1 0 1 0 77 12Z"/><path fill="#fce0a2" d="M50 13A37 37 0 1 0 50 87A37 37 0 1 0 50 13Z"/><path fill="#f1bc19" d="M83 11A4 4 0 1 0 83 19A4 4 0 1 0 83 11Z"/><path fill="#ee3e54" d="M87 22A2 2 0 1 0 87 26A2 2 0 1 0 87 22Z"/><path fill="#fbcd59" d="M81 74A2 2 0 1 0 81 78 2 2 0 1 0 81 74zM15 59A4 4 0 1 0 15 67 4 4 0 1 0 15 59z"/><path fill="#ee3e54" d="M25 85A2 2 0 1 0 25 89A2 2 0 1 0 25 85Z"/><path fill="#fff" d="M18.5 51A2.5 2.5 0 1 0 18.5 56A2.5 2.5 0 1 0 18.5 51Z"/><path fill="#f1bc19" d="M21 66A1 1 0 1 0 21 68A1 1 0 1 0 21 66Z"/><path fill="#fff" d="M80 33A1 1 0 1 0 80 35A1 1 0 1 0 80 33Z"/><path fill="#fefdef" d="M32.478,68.3c-2.083,0-3.777-1.694-3.777-3.777V36.478c0-2.083,1.694-3.777,3.777-3.777h36.045 c2.083,0,3.777,1.694,3.777,3.777v28.045c0,2.083-1.694,3.777-3.777,3.777H32.478z"/><path fill="#472b29" d="M68.522,33.4c1.697,0,3.078,1.381,3.078,3.078v28.045c0,1.697-1.381,3.078-3.078,3.078H32.478 c-1.697,0-3.078-1.381-3.078-3.078V36.478c0-1.697,1.381-3.078,3.078-3.078H68.522 M68.522,32H32.478 C30.005,32,28,34.005,28,36.478v28.045C28,66.995,30.005,69,32.478,69h36.045C70.995,69,73,66.995,73,64.522V36.478 C73,34.005,70.995,32,68.522,32L68.522,32z"/><path fill="#f15b6c" d="M59.5,43.5h6.975c-0.169-2.554-1.613-4.756-3.703-5.975c-0.573-0.334-1.194-0.594-1.851-0.768 c-0.458-0.121-0.933-0.2-1.421-0.232V43.5z"/><path fill="#f15b6c" d="M57.5,38c-4.142,0-7.5,3.358-7.5,7.5s3.358,7.5,7.5,7.5s7.5-3.358,7.5-7.5h-7.5V38z"/><path fill="#472b29" d="M66.475,43.75H59.5c-0.138,0-0.25-0.112-0.25-0.25v-6.975c0-0.069,0.028-0.135,0.079-0.183 c0.051-0.047,0.117-0.079,0.188-0.066c0.574,0.037,1.146,0.14,1.696,0.304c0.132,0.039,0.208,0.178,0.168,0.311 c-0.039,0.133-0.178,0.211-0.311,0.168c-0.431-0.128-0.873-0.215-1.32-0.262v6.453h6.452c-0.227-2.189-1.456-4.182-3.325-5.368 c-0.117-0.074-0.151-0.229-0.077-0.345c0.075-0.117,0.231-0.149,0.345-0.077c2.08,1.32,3.418,3.571,3.579,6.023 c0.005,0.069-0.02,0.137-0.066,0.188C66.609,43.722,66.544,43.75,66.475,43.75z"/><path fill="#472b29" d="M57.5,53.25c-4.273,0-7.75-3.477-7.75-7.75s3.477-7.75,7.75-7.75c0.138,0,0.25,0.112,0.25,0.25v7.25 H65c0.138,0,0.25,0.112,0.25,0.25c0,1.146-0.245,2.251-0.728,3.283c-0.059,0.126-0.206,0.179-0.332,0.121 c-0.126-0.059-0.18-0.207-0.121-0.332c0.416-0.891,0.644-1.839,0.677-2.822H57.5c-0.138,0-0.25-0.112-0.25-0.25v-7.246 c-3.883,0.133-7,3.332-7,7.246c0,3.998,3.252,7.25,7.25,7.25c0.138,0,0.25,0.112,0.25,0.25S57.638,53.25,57.5,53.25z"/><g><path fill="#472b29" d="M59.422,53.002c-0.111,0-0.212-0.074-0.241-0.187c-0.036-0.133,0.044-0.27,0.178-0.305 c1.458-0.386,2.743-1.206,3.714-2.372c0.09-0.106,0.247-0.12,0.353-0.032c0.105,0.089,0.12,0.246,0.032,0.353 c-1.039,1.246-2.412,2.122-3.972,2.534C59.465,52.999,59.442,53.002,59.422,53.002z"/></g><g><path fill="#472b29" d="M60.5,58.2h-10c-0.387,0-0.7-0.313-0.7-0.7s0.313-0.7,0.7-0.7h10c0.387,0,0.7,0.313,0.7,0.7 S60.887,58.2,60.5,58.2z"/></g><g><path fill="#472b29" d="M67.5,58.2h-4c-0.387,0-0.7-0.313-0.7-0.7s0.313-0.7,0.7-0.7h4c0.387,0,0.7,0.313,0.7,0.7 S67.887,58.2,67.5,58.2z"/></g><g><path fill="#472b29" d="M67.5,62.2h-17c-0.387,0-0.7-0.313-0.7-0.7s0.313-0.7,0.7-0.7h17c0.387,0,0.7,0.313,0.7,0.7 S67.887,62.2,67.5,62.2z"/></g><g><path fill="#f15b6c" d="M50.802,72.678c-0.147,0-0.297-0.013-0.447-0.04l-21.59-3.855c-1.196-0.213-2.064-1.25-2.064-2.466 V34.684c0-1.216,0.868-2.253,2.064-2.466l21.59-3.855c0.15-0.027,0.3-0.04,0.446-0.04c1.378,0,2.499,1.124,2.499,2.506v39.344 c0,0.675-0.264,1.307-0.742,1.78C52.084,72.42,51.46,72.678,50.802,72.678L50.802,72.678z"/><path fill="#472b29" d="M50.801,29.022c0.992,0,1.799,0.811,1.799,1.806v39.344c0,0.996-0.807,1.806-1.799,1.806 c-0.107,0-0.216-0.01-0.324-0.029l-21.59-3.855c-0.862-0.154-1.488-0.901-1.488-1.777V34.684c0-0.876,0.626-1.623,1.488-1.777 l21.589-3.855C50.585,29.032,50.694,29.022,50.801,29.022 M50.801,27.622c-0.188,0-0.378,0.017-0.57,0.051l-21.59,3.855 C27.113,31.801,26,33.131,26,34.684v31.633c0,1.553,1.113,2.882,2.642,3.155l21.59,3.855c0.192,0.034,0.382,0.051,0.57,0.051 c1.73,0,3.199-1.405,3.199-3.206V30.828C54,29.028,52.531,27.622,50.801,27.622L50.801,27.622z"/></g><g><path fill="#f15b6c" d="M39.258 67.038L42.879 67.684"/><path fill="#472b29" d="M42.879,67.935c-0.015,0-0.029-0.001-0.044-0.004l-3.621-0.646c-0.136-0.024-0.227-0.154-0.202-0.29 c0.024-0.137,0.155-0.229,0.29-0.202l3.621,0.646c0.136,0.024,0.227,0.154,0.202,0.29C43.104,67.85,42.998,67.935,42.879,67.935z"/></g><g><path fill="#472b29" d="M49.5,56.875c-0.138,0-0.25-0.112-0.25-0.25v-2.667c0-0.138,0.112-0.25,0.25-0.25 s0.25,0.112,0.25,0.25v2.667C49.75,56.763,49.638,56.875,49.5,56.875z"/></g><g><path fill="#472b29" d="M49.5,60.958c-0.138,0-0.25-0.112-0.25-0.25V58.5c0-0.138,0.112-0.25,0.25-0.25 s0.25,0.112,0.25,0.25v2.208C49.75,60.846,49.638,60.958,49.5,60.958z"/></g><g><path fill="#f15b6c" d="M44.119,67.906l3.851,0.688c0.797,0.142,1.53-0.471,1.53-1.281v-4.938"/><path fill="#472b29" d="M48.201,68.864c-0.092,0-0.184-0.008-0.274-0.024l-3.852-0.688c-0.136-0.024-0.227-0.154-0.202-0.29 c0.024-0.137,0.154-0.232,0.29-0.202l3.852,0.688c0.305,0.055,0.62-0.028,0.858-0.229c0.239-0.2,0.377-0.494,0.377-0.807v-4.938 c0-0.138,0.112-0.25,0.25-0.25s0.25,0.112,0.25,0.25v4.938c0,0.461-0.202,0.895-0.556,1.19 C48.912,68.738,48.562,68.864,48.201,68.864z"/></g><g><path fill="#fff" d="M37.163,53.125v6.442l-3.252-0.306V41.59l6.158-0.579c1.186-0.111,2.228,0.054,3.128,0.506 c0.899,0.46,1.592,1.173,2.076,2.14C45.757,44.633,46,45.768,46,47.055c0,1.955-0.53,3.495-1.589,4.605 c-1.059,1.088-2.525,1.596-4.397,1.544L37.163,53.125z M37.163,50.074l2.906-0.011c0.86-0.003,1.516-0.251,1.968-0.746 c0.452-0.499,0.678-1.211,0.678-2.132c0-0.946-0.228-1.701-0.683-2.259c-0.455-0.553-1.084-0.811-1.887-0.778l-2.982,0.187V50.074 z"/></g><g><path fill="#472b29" d="M37.163,59.817c-0.008,0-0.016,0-0.023-0.001l-3.252-0.306c-0.128-0.012-0.227-0.12-0.227-0.249 V41.59c0-0.129,0.099-0.237,0.227-0.249l6.158-0.579c0.603-0.057,1.18-0.042,1.713,0.041c0.136,0.021,0.229,0.149,0.208,0.286 c-0.021,0.136-0.142,0.228-0.286,0.208c-0.491-0.077-1.028-0.091-1.588-0.037l-5.932,0.558v17.217l2.752,0.259v-6.168 c0-0.067,0.027-0.132,0.076-0.18c0.047-0.046,0.101-0.082,0.181-0.07l2.852,0.079c1.825,0.065,3.199-0.428,4.211-1.469 c0.727-0.761,1.198-1.754,1.4-2.95c0.022-0.136,0.144-0.232,0.288-0.204c0.136,0.022,0.228,0.151,0.204,0.288 c-0.219,1.296-0.734,2.377-1.533,3.214c-1.101,1.132-2.654,1.677-4.584,1.621l-2.595-0.072v6.186c0,0.07-0.029,0.138-0.082,0.185 C37.285,59.794,37.225,59.817,37.163,59.817z M37.163,50.324c-0.066,0-0.13-0.026-0.177-0.073s-0.073-0.11-0.073-0.177v-5.738 c0-0.132,0.103-0.241,0.234-0.249l2.981-0.188c0.867-0.036,1.591,0.256,2.096,0.868c0.491,0.603,0.74,1.416,0.74,2.419 c0,0.981-0.25,1.755-0.742,2.3c-0.499,0.546-1.223,0.824-2.152,0.827L37.163,50.324L37.163,50.324z M37.413,44.57v5.253 l2.655-0.01c0.795-0.003,1.379-0.22,1.784-0.664c0.406-0.448,0.612-1.109,0.612-1.963c0-0.885-0.211-1.592-0.627-2.102 c-0.404-0.491-0.96-0.725-1.684-0.687L37.413,44.57z M46,47.306c-0.138,0-0.25-0.112-0.25-0.25c0-0.635-0.062-1.24-0.184-1.798 c-0.029-0.136,0.056-0.269,0.19-0.298c0.142-0.029,0.269,0.057,0.298,0.19c0.13,0.594,0.195,1.234,0.195,1.905 C46.25,47.193,46.138,47.306,46,47.306z M45.273,43.908c-0.092,0-0.18-0.051-0.224-0.138c-0.457-0.913-1.119-1.596-1.967-2.03 c-0.123-0.063-0.171-0.214-0.108-0.337s0.213-0.172,0.337-0.108c0.944,0.484,1.68,1.241,2.186,2.251 c0.062,0.124,0.012,0.274-0.111,0.336C45.35,43.899,45.312,43.908,45.273,43.908z"/></g></svg>